<svg width="146" height="40" viewBox="0 0 146 40" fill="none" xmlns="http://www.w3.org/2000/svg">
<g clip-path="url(#clip0)">
<path d="M54.0421 15.9531C53.4761 16.1796 52.9346 16.3246 52.4186 16.3881C51.9021 16.4516 51.3606 16.4836 50.7946 16.4836C49.4786 16.4836 48.3925 16.2356 47.5365 15.7406C46.68 15.2456 46.0435 14.5626 45.626 13.6921C45.2085 12.8216 45 11.8421 45 10.7526C45 9.67756 45.198 8.70805 45.5945 7.84453C45.9905 6.98152 46.578 6.29152 47.356 5.77501C48.134 5.2585 49.0966 5.0005 50.2426 5.0005C51.5586 5.0005 52.5806 5.3475 53.3096 6.04051C54.0381 6.73402 54.4026 7.68903 54.4026 8.90605C54.1196 8.97705 53.6811 9.01205 53.0866 9.01205C52.8461 9.01205 52.6051 9.00155 52.3651 8.98055C52.1246 8.95955 51.9331 8.93455 51.7921 8.90605C51.7351 8.45304 51.5906 8.09604 51.3571 7.83404C51.1236 7.57253 50.7451 7.44153 50.2216 7.44153C49.5421 7.44153 49.0116 7.72803 48.6295 8.30104C48.2475 8.87405 48.0565 9.69156 48.0565 10.7526C48.0565 11.8986 48.325 12.7336 48.8631 13.2571C49.4006 13.7806 50.1506 14.0426 51.1131 14.0426C51.5801 14.0426 51.9621 14.0181 52.2591 13.9681C52.5561 13.9186 52.9521 13.8091 53.4476 13.6391C53.6171 13.9221 53.7586 14.2511 53.8721 14.6261C53.9856 15.0016 54.0421 15.4436 54.0421 15.9531ZM65.3713 7.85954C64.9893 6.98903 64.4088 6.29952 63.6307 5.79001C62.8522 5.2805 61.8617 5.026 60.6592 5.026C59.4842 5.026 58.5047 5.2805 57.7192 5.79001C56.9337 6.29952 56.3501 6.98903 55.9681 7.85954C55.5861 8.72955 55.3951 9.70956 55.3951 10.7996C55.3951 11.8751 55.5861 12.8441 55.9681 13.7076C56.3501 14.5706 56.9337 15.2536 57.7192 15.7556C58.5047 16.2576 59.4842 16.5091 60.6592 16.5091C61.8617 16.5091 62.8522 16.2576 63.6307 15.7556C64.4088 15.2536 64.9893 14.5706 65.3713 13.7076C65.7533 12.8441 65.9448 11.8751 65.9448 10.7996C65.9448 9.70956 65.7533 8.72955 65.3713 7.85954ZM62.3682 13.3356C62.0212 13.9231 61.4517 14.2166 60.6592 14.2166C59.8807 14.2166 59.3182 13.9231 58.9717 13.3356C58.6247 12.7491 58.4517 11.9031 58.4517 10.7996C58.4517 9.69556 58.6247 8.85005 58.9717 8.26304C59.3182 7.67553 59.8807 7.38203 60.6592 7.38203C61.4517 7.38203 62.0212 7.67553 62.3682 8.26304C62.7147 8.85005 62.8877 9.69556 62.8877 10.7996C62.8877 11.9031 62.7147 12.7491 62.3682 13.3356ZM70.4883 16.2291C69.9788 16.3141 69.4763 16.3566 68.9813 16.3566C68.4858 16.3566 67.9838 16.3141 67.4743 16.2291V5.255C67.6723 5.2125 67.8703 5.181 68.0688 5.1595C68.2668 5.1385 68.4858 5.128 68.7268 5.128C68.9673 5.128 69.1793 5.1385 69.3633 5.1595C69.5473 5.181 69.7383 5.2125 69.9363 5.255C70.0213 5.39651 70.0918 5.63701 70.1483 5.97651C70.2048 6.31602 70.2473 6.58502 70.2758 6.78302C70.5018 6.35852 70.8703 5.95501 71.3798 5.57301C71.8894 5.191 72.5334 5 73.3114 5C75.0094 5 76.1059 5.65101 76.6014 6.95252C76.8844 6.42902 77.2839 5.97301 77.8004 5.58351C78.3169 5.1945 78.9714 5 79.764 5C81.009 5 81.9255 5.343 82.5125 6.02951C83.0995 6.71602 83.3935 7.78803 83.3935 9.24505V16.2286C82.884 16.3136 82.3815 16.3561 81.8865 16.3561C81.391 16.3561 80.889 16.3136 80.3795 16.2286V10.0311C80.3795 9.26705 80.284 8.68005 80.093 8.26954C79.902 7.85904 79.5165 7.65403 78.9359 7.65403C78.6244 7.65403 78.3164 7.72153 78.0124 7.85554C77.7079 7.99004 77.4534 8.24854 77.2484 8.63005C77.0429 9.01205 76.9409 9.57156 76.9409 10.3071V16.2291C76.4314 16.3141 75.9289 16.3566 75.4339 16.3566C74.9384 16.3566 74.4364 16.3141 73.9269 16.2291V10.0311C73.9269 9.26705 73.8314 8.68005 73.6404 8.26954C73.4494 7.85904 73.0639 7.65403 72.4834 7.65403C72.1574 7.65403 71.8429 7.72503 71.5388 7.86654C71.2343 8.00804 70.9833 8.28054 70.7853 8.68355C70.5868 9.08705 70.4883 9.68456 70.4883 10.4771V16.2291V16.2291ZM94.7047 7.44153C94.3226 6.62052 93.8026 6.00851 93.1446 5.60551C92.4866 5.202 91.7471 5.0005 90.9266 5.0005C90.1336 5.0005 89.4831 5.1915 88.9736 5.57351C88.4641 5.95551 88.0821 6.37302 87.8271 6.82552C87.8131 6.69852 87.7881 6.52852 87.7531 6.31652C87.7176 6.10401 87.6751 5.89901 87.6256 5.70051C87.5761 5.50251 87.5231 5.354 87.4666 5.255C87.07 5.17 86.667 5.1275 86.2565 5.1275C86.0155 5.1275 85.8 5.135 85.609 5.149C85.418 5.163 85.2235 5.1915 85.0255 5.2335V20.1457C85.294 20.1882 85.5525 20.2162 85.8 20.2307C86.0475 20.2447 86.2915 20.2522 86.5325 20.2522C86.773 20.2522 87.0171 20.2447 87.2646 20.2307C87.5121 20.2162 87.7706 20.1882 88.0396 20.1457V16.3776C88.3931 16.4481 88.8251 16.4836 89.3346 16.4836C91.2026 16.4836 92.6596 15.9531 93.7071 14.8916C94.7542 13.8306 95.2777 12.3871 95.2777 10.5616C95.2777 9.30205 95.0867 8.26204 94.7047 7.44153ZM91.3721 13.2151C90.9051 13.7811 90.2331 14.0641 89.3556 14.0641C88.8886 14.0641 88.4501 14.0076 88.0396 13.8941V10.1581C88.0396 9.45106 88.1881 8.84605 88.4856 8.34354C88.7826 7.84154 89.2846 7.59003 89.9926 7.59003C90.7566 7.59003 91.2941 7.88004 91.6056 8.46004C91.9166 9.04055 92.0726 9.76906 92.0726 10.6466C92.0726 11.7926 91.8391 12.6491 91.3721 13.2151ZM104.144 6.06151C103.316 5.354 102.166 5.0005 100.695 5.0005C100.157 5.0005 99.5767 5.05 98.9537 5.149C98.3312 5.248 97.7087 5.4035 97.0862 5.61601C97.0862 6.06901 97.1357 6.45802 97.2347 6.78352C97.3337 7.10903 97.4822 7.45553 97.6802 7.82303C98.5577 7.52603 99.3712 7.37753 100.121 7.37753C100.829 7.37753 101.395 7.48053 101.819 7.68553C102.244 7.89054 102.456 8.33304 102.456 9.01205V9.26655C101.975 9.22455 101.522 9.20305 101.098 9.20305C100.532 9.20305 99.9657 9.26355 99.3997 9.38355C98.8337 9.50406 98.3172 9.70206 97.8502 9.97756C97.3832 10.2536 97.0082 10.6221 96.7252 11.0816C96.4422 11.5416 96.3007 12.1111 96.3007 12.7906C96.3007 13.6961 96.5057 14.4176 96.9162 14.9556C97.3267 15.4936 97.8997 15.8821 98.6357 16.1231C99.3712 16.3631 100.22 16.4836 101.183 16.4836C102.074 16.4836 102.874 16.4126 103.581 16.2716C104.289 16.1301 104.89 15.9816 105.386 15.8256V9.45756C105.386 7.90154 104.972 6.76952 104.144 6.06151ZM102.456 14.0001C102.3 14.0286 102.117 14.0606 101.905 14.0956C101.692 14.1311 101.48 14.1486 101.268 14.1486C101.013 14.1486 100.719 14.1241 100.387 14.0746C100.054 14.0251 99.7607 13.8976 99.5057 13.6926C99.2512 13.4876 99.1237 13.1441 99.1237 12.6631C99.1237 12.1111 99.3257 11.7116 99.7287 11.4636C100.132 11.2161 100.68 11.0921 101.374 11.0921C101.713 11.0921 102.074 11.1276 102.456 11.1986V14.0001V14.0001ZM110.263 16.2501C110.008 16.2926 109.754 16.3206 109.499 16.3351C109.245 16.3491 108.997 16.3561 108.756 16.3561C108.516 16.3561 108.271 16.3491 108.024 16.3351C107.776 16.3211 107.518 16.2926 107.249 16.2501V5.255C107.461 5.2125 107.663 5.181 107.854 5.1595C108.045 5.1385 108.254 5.128 108.48 5.128C108.692 5.128 108.901 5.142 109.106 5.1705C109.311 5.199 109.513 5.234 109.711 5.2765C109.796 5.41801 109.867 5.66251 109.923 6.00901C109.98 6.35602 110.022 6.62802 110.051 6.82602C110.348 6.40152 110.723 6.01251 111.176 5.65851C111.629 5.305 112.159 5.128 112.768 5.128C112.966 5.128 113.15 5.1355 113.32 5.149C113.49 5.163 113.645 5.1845 113.787 5.2125C113.815 5.354 113.836 5.51701 113.85 5.70051C113.864 5.88451 113.871 6.07551 113.871 6.27352C113.871 6.51402 113.861 6.77602 113.839 7.05903C113.818 7.34203 113.779 7.61103 113.722 7.86554C113.566 7.83754 113.393 7.82303 113.202 7.82303C113.011 7.82303 112.894 7.82303 112.852 7.82303C112.611 7.82303 112.342 7.85154 112.045 7.90804C111.748 7.96454 111.465 8.09204 111.196 8.29004C110.927 8.48854 110.704 8.80305 110.528 9.23455C110.351 9.66656 110.262 10.2641 110.262 11.0281V16.2501H110.263ZM123.029 13.5546C122.081 13.9086 121.14 14.0851 120.206 14.0851C119.385 14.0851 118.717 13.9226 118.2 13.5971C117.683 13.2716 117.362 12.7476 117.234 12.0261C117.899 12.1251 118.607 12.1746 119.357 12.1746C120.249 12.1746 121.066 12.0581 121.809 11.8246C122.552 11.5911 123.146 11.2161 123.592 10.6996C124.038 10.1831 124.261 9.51456 124.261 8.69355C124.261 7.57603 123.864 6.68102 123.072 6.00851C122.279 5.3365 121.189 5.0005 119.803 5.0005C118.6 5.0005 117.581 5.2585 116.746 5.77501C115.911 6.29152 115.278 6.99552 114.846 7.88704C114.415 8.77855 114.199 9.79756 114.199 10.9436C114.199 11.9911 114.397 12.9356 114.793 13.7776C115.189 14.6196 115.812 15.2811 116.661 15.7621C117.51 16.2426 118.621 16.4836 119.994 16.4836C120.616 16.4836 121.239 16.4306 121.862 16.3246C122.485 16.2181 123.072 16.0591 123.624 15.8471C123.609 15.3941 123.546 14.9696 123.433 14.5731C123.319 14.1776 123.185 13.8376 123.029 13.5546ZM118.052 7.96104C118.54 7.51553 119.109 7.29253 119.76 7.29253C120.284 7.29253 120.694 7.42003 120.991 7.67453C121.288 7.92954 121.438 8.26204 121.438 8.67255C121.438 9.05455 121.324 9.35505 121.098 9.57456C120.871 9.79406 120.581 9.94956 120.227 10.0416C119.873 10.1336 119.505 10.1796 119.124 10.1796C118.373 10.1796 117.73 10.1446 117.192 10.0736C117.277 9.11105 117.563 8.40704 118.052 7.96104ZM145.254 23.7037H144.768L143.914 26.2008H143.91L143.055 23.7037H142.555C142.424 24.7167 142.345 25.8468 142.321 26.8543H142.7C142.714 25.8798 142.761 24.8942 142.821 24.1937H142.825L143.721 26.8543H144.017L144.907 24.1937H144.913C144.997 24.8337 145.071 25.8798 145.09 26.8543H145.501C145.473 25.8468 145.38 24.7172 145.254 23.7037ZM139.811 23.7037V24.0107H140.628V26.8538H141.015V24.0107H141.838V23.7037H139.811ZM77.8394 34.6779C77.3304 34.7629 76.8274 34.8054 76.3324 34.8054C75.8369 34.8054 75.3349 34.7629 74.8254 34.6779V23.7037C75.0234 23.6612 75.2214 23.6297 75.4199 23.6082C75.6179 23.5872 75.8369 23.5767 76.0779 23.5767C76.3179 23.5767 76.5309 23.5872 76.7149 23.6082C76.8989 23.6297 77.0894 23.6612 77.2879 23.7037C77.3729 23.8452 77.4434 24.0857 77.4999 24.4252C77.5564 24.7647 77.5989 25.0337 77.6274 25.2318C77.8534 24.8072 78.2219 24.4037 78.7314 24.0217C79.2404 23.6397 79.8845 23.4487 80.663 23.4487C82.3615 23.4487 83.4575 24.0997 83.953 25.4013C84.236 24.8777 84.6355 24.4217 85.152 24.0322C85.6685 23.6432 86.323 23.4487 87.1156 23.4487C88.3611 23.4487 89.2771 23.7917 89.8646 24.4782C90.4516 25.1648 90.7456 26.2368 90.7456 27.6938V34.6774C90.2366 34.7624 89.7336 34.8049 89.2386 34.8049C88.7431 34.8049 88.2411 34.7624 87.7316 34.6774V28.4798C87.7316 27.7158 87.6361 27.1288 87.4451 26.7183C87.2541 26.3078 86.8685 26.1028 86.288 26.1028C85.9765 26.1028 85.669 26.1703 85.3645 26.3043C85.06 26.4388 84.8055 26.6973 84.6005 27.0788C84.395 27.4608 84.2925 28.0203 84.2925 28.7558V34.6779C83.7835 34.7629 83.2805 34.8054 82.7855 34.8054C82.29 34.8054 81.788 34.7629 81.2785 34.6779V28.4798C81.2785 27.7158 81.183 27.1288 80.992 26.7183C80.801 26.3078 80.4155 26.1028 79.835 26.1028C79.509 26.1028 79.1945 26.1738 78.8904 26.3153C78.5859 26.4568 78.3349 26.7293 78.1369 27.1323C77.9384 27.5358 77.8394 28.1333 77.8394 28.9258V34.6779V34.6779ZM100.216 24.5107C99.3882 23.8032 98.2382 23.4497 96.7667 23.4497C96.2287 23.4497 95.6487 23.4992 95.0262 23.5982C94.4031 23.6972 93.7806 23.8527 93.1581 24.0652C93.1581 24.5182 93.2076 24.9072 93.3066 25.2328C93.4056 25.5583 93.5541 25.9048 93.7526 26.2723C94.6296 25.9753 95.4432 25.8268 96.1937 25.8268C96.9012 25.8268 97.4672 25.9298 97.8917 26.1348C98.3162 26.3398 98.5287 26.7823 98.5287 27.4613V27.7158C98.0472 27.6738 97.5942 27.6523 97.1702 27.6523C96.6037 27.6523 96.0377 27.7128 95.4717 27.8328C94.9057 27.9533 94.3892 28.1513 93.9221 28.4268C93.4556 28.7028 93.0801 29.0713 92.7976 29.5308C92.5141 29.9908 92.3726 30.5603 92.3726 31.2398C92.3726 32.1453 92.5776 32.8668 92.9881 33.4049C93.3986 33.9429 93.9716 34.3314 94.7077 34.5724C95.4432 34.8124 96.2922 34.9329 97.2547 34.9329C98.1462 34.9329 98.9457 34.8619 99.6532 34.7209C100.361 34.5794 100.962 34.4309 101.458 34.2749V27.9068C101.458 26.3508 101.044 25.2188 100.216 24.5107ZM98.5287 32.4493C98.3727 32.4778 98.1887 32.5098 97.9767 32.5448C97.7642 32.5803 97.5517 32.5978 97.3397 32.5978C97.0852 32.5978 96.7912 32.5733 96.4592 32.5238C96.1262 32.4743 95.8327 32.3468 95.5777 32.1418C95.3232 31.9368 95.1962 31.5933 95.1962 31.1123C95.1962 30.5603 95.3972 30.1608 95.8007 29.9128C96.2042 29.6653 96.7522 29.5413 97.4462 29.5413C97.7857 29.5413 98.1462 29.5768 98.5287 29.6478V32.4493ZM106.26 34.6994C106.006 34.7419 105.751 34.7699 105.496 34.7844C105.241 34.7984 104.994 34.8054 104.753 34.8054C104.513 34.8054 104.268 34.7984 104.021 34.7844C103.773 34.7704 103.515 34.7419 103.246 34.6994V23.7042C103.458 23.6617 103.66 23.6302 103.851 23.6087C104.042 23.5877 104.251 23.5772 104.477 23.5772C104.69 23.5772 104.898 23.5912 105.103 23.6197C105.308 23.6482 105.51 23.6832 105.708 23.7257C105.793 23.8672 105.864 24.1117 105.92 24.4582C105.977 24.8052 106.019 25.0773 106.048 25.2753C106.345 24.8507 106.72 24.4617 107.173 24.1077C107.625 23.7542 108.156 23.5772 108.765 23.5772C108.963 23.5772 109.147 23.5847 109.316 23.5982C109.486 23.6122 109.642 23.6337 109.783 23.6617C109.811 23.8032 109.833 23.9662 109.847 24.1497C109.861 24.3337 109.868 24.5247 109.868 24.7227C109.868 24.9632 109.858 25.2253 109.837 25.5083C109.815 25.7913 109.776 26.0603 109.72 26.3148C109.564 26.2868 109.391 26.2723 109.2 26.2723C109.009 26.2723 108.892 26.2723 108.85 26.2723C108.609 26.2723 108.34 26.3008 108.043 26.3573C107.746 26.4138 107.463 26.5413 107.194 26.7393C106.925 26.9378 106.702 27.2523 106.526 27.6838C106.349 28.1158 106.26 28.7133 106.26 29.4773V34.6994V34.6994ZM111.203 34.6779V20.5622C111.698 20.4772 112.194 20.4347 112.689 20.4347C113.213 20.4347 113.715 20.4772 114.196 20.5622V28.8193L117.317 23.7037C117.868 23.6187 118.434 23.5762 119.015 23.5762C119.283 23.5762 119.566 23.5867 119.864 23.6077C120.161 23.6292 120.437 23.6607 120.691 23.7032L117.295 28.8188L121.159 34.6774C120.875 34.7199 120.575 34.7519 120.257 34.7729C119.938 34.7939 119.645 34.8044 119.376 34.8044C118.866 34.8044 118.336 34.7619 117.784 34.6769L114.196 29.0308V34.6769C113.715 34.7619 113.213 34.8044 112.689 34.8044C112.193 34.8054 111.698 34.7629 111.203 34.6779ZM129.735 32.0038C128.787 32.3578 127.846 32.5343 126.912 32.5343C126.091 32.5343 125.422 32.3718 124.906 32.0463C124.389 31.7208 124.067 31.1968 123.94 30.4753C124.605 30.5743 125.312 30.6238 126.063 30.6238C126.954 30.6238 127.771 30.5073 128.514 30.2738C129.257 30.0403 129.852 29.6653 130.297 29.1488C130.743 28.6323 130.966 27.9638 130.966 27.1428C130.966 26.0253 130.57 25.1303 129.777 24.4577C128.985 23.7857 127.895 23.4497 126.508 23.4497C125.305 23.4497 124.287 23.7077 123.452 24.2242C122.617 24.7407 121.984 25.4448 121.552 26.3363C121.12 27.2278 120.904 28.2468 120.904 29.3928C120.904 30.4403 121.103 31.3848 121.499 32.2268C121.895 33.0689 122.518 33.7304 123.367 34.2114C124.216 34.6919 125.327 34.9329 126.699 34.9329C127.322 34.9329 127.944 34.8799 128.567 34.7739C129.19 34.6674 129.777 34.5084 130.329 34.2964C130.315 33.8434 130.251 33.4189 130.138 33.0223C130.025 32.6268 129.89 32.2868 129.735 32.0038ZM124.757 26.4103C125.246 25.9648 125.815 25.7418 126.466 25.7418C126.989 25.7418 127.4 25.8693 127.697 26.1238C127.994 26.3788 128.143 26.7113 128.143 27.1218C128.143 27.5038 128.029 27.8043 127.803 28.0238C127.577 28.2433 127.287 28.3988 126.933 28.4908C126.579 28.5828 126.211 28.6288 125.829 28.6288C125.079 28.6288 124.435 28.5938 123.898 28.5228C123.983 27.5603 124.269 26.8563 124.757 26.4103ZM131.605 25.9963L131.499 25.5718L135.468 20.4987H135.956V23.7037H138.524C138.567 23.9162 138.595 24.1072 138.609 24.2767C138.623 24.4462 138.63 24.6237 138.63 24.8072C138.63 25.0057 138.623 25.1968 138.609 25.3803C138.595 25.5643 138.566 25.7698 138.524 25.9958H135.956V30.3048C135.956 31.1683 136.094 31.7343 136.37 32.0028C136.646 32.2718 137.046 32.4063 137.569 32.4063C137.781 32.4063 137.99 32.3888 138.195 32.3533C138.4 32.3178 138.581 32.2863 138.737 32.2578C138.835 32.5268 138.906 32.8064 138.949 33.0964C138.991 33.3864 139.013 33.6449 139.013 33.8709C139.013 34.0269 139.009 34.1574 139.002 34.2634C138.995 34.3699 138.984 34.4724 138.97 34.5714C138.645 34.6424 138.316 34.6989 137.984 34.7409C137.651 34.7834 137.308 34.8044 136.954 34.8044C135.666 34.8044 134.683 34.5039 134.004 33.9024C133.325 33.3009 132.985 32.3208 132.985 30.9623V25.9953H131.605V25.9963ZM48.3515 24.8632V32.0433C48.3515 32.5188 48.4315 32.8724 48.59 33.1029C48.7486 33.3334 48.9541 33.4849 49.2061 33.5569C49.4591 33.6289 49.7146 33.6654 49.9746 33.6654C50.4936 33.6654 50.9326 33.6004 51.2931 33.4704C51.3511 33.6584 51.3981 33.8524 51.4346 34.0544C51.4701 34.2564 51.4951 34.4649 51.5101 34.6814C50.9616 34.8399 50.3561 34.9199 49.6936 34.9199C48.8726 34.9199 48.205 34.6999 47.693 34.2594C47.181 33.8204 46.9255 33.1029 46.9255 32.1073V24.8632H45.044C45.029 24.7912 45.019 24.6977 45.012 24.5817C45.004 24.4667 45.0005 24.3512 45.0005 24.2362C45.0005 24.1212 45.004 24.0127 45.012 23.9112C45.019 23.8107 45.029 23.7242 45.044 23.6522H46.9255V21.5757L48.2665 20.2572H48.352V23.6522H51.3366C51.3516 23.7242 51.3616 23.8107 51.3696 23.9112C51.3766 24.0127 51.3801 24.1212 51.3801 24.2362C51.3801 24.3512 51.3766 24.4667 51.3696 24.5817C51.3616 24.6982 51.3516 24.7917 51.3366 24.8632H48.3515ZM54.8511 34.7159C54.7646 34.7294 54.6456 34.7409 54.4941 34.7479C54.3436 34.7559 54.2236 34.7594 54.1381 34.7594C54.0651 34.7594 53.9501 34.7559 53.7916 34.7479C53.6331 34.7409 53.5111 34.7299 53.4246 34.7159V20.2787C53.5111 20.2652 53.6301 20.2537 53.7816 20.2467C53.9321 20.2397 54.0521 20.2352 54.1386 20.2352C54.2106 20.2352 54.3256 20.2397 54.4841 20.2467C54.6426 20.2537 54.7646 20.2647 54.8511 20.2787V25.6553C55.0531 25.2948 55.3196 24.9447 55.6516 24.6062C55.9836 24.2677 56.3906 23.9857 56.8732 23.7622C57.3567 23.5387 57.9007 23.4267 58.5062 23.4267C59.7742 23.4267 60.7082 23.8052 61.3072 24.5627C61.9047 25.3203 62.2047 26.3828 62.2047 27.7528V34.7159C62.1182 34.7294 61.9992 34.7409 61.8477 34.7479C61.6962 34.7559 61.5772 34.7594 61.4907 34.7594C61.4187 34.7594 61.3027 34.7559 61.1452 34.7479C60.9857 34.7409 60.8637 34.7299 60.7767 34.7159V28.1848C60.7767 26.9598 60.5747 26.0808 60.1712 25.5468C59.7677 25.0132 59.1837 24.7462 58.4197 24.7462C57.4102 24.7462 56.5631 25.1183 55.8786 25.8603C55.1931 26.6028 54.8511 27.7023 54.8511 29.1583V34.7159V34.7159ZM69.2503 33.6569C66.6993 33.6569 65.3728 32.3453 65.2713 29.7198C65.7333 29.7783 66.2088 29.8328 66.6993 29.8833C67.1883 29.9333 67.7003 29.9583 68.2343 29.9583C69.6758 29.9583 70.8298 29.6913 71.6944 29.1578C72.5599 28.6253 72.9924 27.7743 72.9924 26.6068C72.9924 25.5823 72.6354 24.7897 71.9214 24.2277C71.2083 23.6652 70.2528 23.3837 69.0563 23.3837C68.0473 23.3837 67.1428 23.6152 66.3423 24.0757C65.5418 24.5377 64.9143 25.2118 64.4603 26.0978C64.0067 26.9853 63.7797 28.0698 63.7797 29.3528C63.7797 31.1263 64.2473 32.4993 65.1848 33.4734C66.1223 34.4459 67.4633 34.9329 69.2068 34.9329C69.7558 34.9329 70.3178 34.8819 70.8948 34.7814C71.4708 34.6799 71.9614 34.5364 72.3649 34.3489C72.3364 33.8874 72.2499 33.4834 72.1059 33.1379C71.1103 33.4834 70.1593 33.6569 69.2503 33.6569ZM66.4393 25.6658C67.1313 24.9812 68.0038 24.6382 69.0563 24.6382C69.9073 24.6382 70.5378 24.8262 70.9483 25.2003C71.3588 25.5758 71.5644 26.0658 71.5644 26.6718C71.5644 27.2053 71.4173 27.6228 71.1218 27.9263C70.8253 28.2283 70.4263 28.4418 69.9208 28.5638C69.4168 28.6868 68.8468 28.7473 68.2128 28.7473C67.6938 28.7473 67.1748 28.7253 66.6558 28.6823C66.1368 28.6388 65.6833 28.5888 65.2928 28.5318C65.3648 27.3058 65.7468 26.3513 66.4393 25.6658Z" fill="#0028D7"/>
<path d="M20 40.009C31.0457 40.009 40 31.0547 40 20.009C40 8.96334 31.0457 0.0090332 20 0.0090332C8.9543 0.0090332 0 8.96334 0 20.009C0 31.0547 8.9543 40.009 20 40.009Z" fill="#F5F5F5"/>
<path d="M33.275 11.6192C32.6465 12.3999 32.3005 12.3689 32.3005 12.3689C32.3005 12.3689 31.9375 13.3641 31.292 14.1423C30.967 14.5344 30.5015 15.057 30.0415 15.5491C29.5585 16.0657 29.081 16.5478 28.7755 16.8114C28.462 17.0809 27.5925 18.0936 26.813 19.1969C26.1475 20.1396 25.5485 21.1488 25.418 21.8185C25.3915 21.954 25.428 22.0985 25.525 22.1966C25.652 22.3246 25.822 22.3271 25.8345 22.3271C25.7925 22.3586 23.907 23.7839 24.236 26.1845C24.4185 27.2952 24.662 27.4212 24.662 27.4212C24.662 27.4212 21.7665 26.8346 19.379 28.2274C17.4315 27.3947 15.263 26.9496 13.5815 26.7121C11.9 26.4745 10.7045 26.446 10.7045 26.446C10.574 25.9354 10.2635 24.4316 8.51603 23.0087C6.93103 21.719 4.34253 18.0136 5.97203 13.5821C7.60203 9.15014 11.851 7.13169 13.628 6.53055C15.8785 5.76888 18.4885 5.3993 19.3915 5.04272C19.3915 5.04272 19.4815 5.00871 19.617 4.9552C19.6175 4.9547 19.619 4.9547 19.6195 4.9542C19.62 4.9537 19.6215 4.9537 19.622 4.9537C19.9755 4.81417 20.6345 4.55061 20.846 4.42608C21.1415 4.25254 21.326 4.36607 21.434 4.69614C21.5425 5.02572 23.308 7.43276 25.2925 7.71182C25.296 7.71232 25.3055 7.71382 25.3055 7.71382C27.2955 7.98438 30.3505 7.47527 30.6845 7.45126C31.019 7.42776 32.3925 7.25172 33.211 8.24994C34.0295 9.24816 33.9035 10.8385 33.275 11.6192Z" fill="url(#paint0_linear)"/>
<path d="M19.379 28.2274C21.7665 26.8346 24.662 27.4212 24.662 27.4212C24.662 27.4212 24.4185 27.2952 24.236 26.1844C23.907 23.7839 25.7925 22.3586 25.8345 22.3271C25.822 22.3271 25.652 22.3246 25.525 22.1965C25.428 22.0985 25.3915 21.954 25.418 21.8184C25.5485 21.1488 26.1475 20.1396 26.813 19.1969C26.8255 19.1793 26.8375 19.1618 26.85 19.1448C26.85 19.1448 26.85 19.1448 26.85 19.1443L26.014 18.4447C25.639 18.1231 25.103 17.9406 24.6545 17.9406C24.274 17.9406 23.8955 18.0441 23.5655 18.2451C23.325 18.3912 23.1085 18.5897 22.936 18.8378C22.1955 19.758 21.252 20.5076 20.112 20.8767C20.075 20.8892 20.0405 20.8527 20.0525 20.8167C20.115 20.6277 20.179 20.4391 20.2415 20.2501C18.9965 21.1838 17.607 22.2025 15.993 22.2215C15.95 22.2215 15.928 22.1685 15.9585 22.138C16.2375 21.8594 16.5095 21.5789 16.732 21.2543C15.6195 21.7379 14.456 22.274 13.216 22.0615C13.17 22.0535 13.174 21.994 13.2035 21.9725C13.5295 21.7334 13.8375 21.4779 14.1235 21.2003C9.71103 21.6369 5.36603 20.4156 5.95103 13.6416C5.95053 13.6426 5.95053 13.6436 5.95003 13.6446C5.92953 13.7021 5.90903 13.7596 5.88953 13.8171C4.43453 18.1441 6.95903 21.7419 8.51603 23.0087C10.2635 24.4315 10.574 25.9354 10.7045 26.446C10.7045 26.446 11.9 26.4745 13.5815 26.712C15.263 26.9496 17.4315 27.3947 19.379 28.2274Z" fill="url(#paint1_linear)"/>
<path d="M28.082 13.585C28.082 13.585 27.032 13.5825 26.391 13.5295C25.75 13.4765 24.061 13.2895 23.41 13.399C22.7585 13.5085 22.124 13.5885 21.4295 14.2722C20.734 14.9558 19.2125 16.3837 19.188 16.7377C19.163 17.0913 20.676 21.6518 26.817 19.1888C26.8185 19.1878 26.82 19.1868 26.821 19.1863C27.5985 18.0875 28.463 17.0808 28.7755 16.8123C29.081 16.5487 29.5585 16.0666 30.0415 15.55C30.5015 15.0579 30.967 14.5352 31.292 14.1432C31.9375 13.365 32.3005 12.3698 32.3005 12.3698C32.118 12.4938 30.455 13.585 28.082 13.585Z" fill="url(#paint2_radial)"/>
<path d="M11.4505 15.5193C11.0705 15.0151 10.804 14.3325 10.89 13.6923C10.681 13.8059 10.4785 13.9304 10.267 14.0399C10.2365 14.0554 10.191 14.0369 10.1935 13.9979C10.24 13.3728 10.5615 12.8587 10.7625 12.2815C10.484 12.3245 10.211 12.3891 9.93949 12.4656C9.89999 12.4766 9.86099 12.4301 9.88449 12.3941C10.5415 11.3928 11.6645 10.7352 12.784 10.3486C12.865 10.1931 12.9045 10.012 12.8845 9.916L12.881 9.9015C12.5655 8.66572 9.98649 9.71546 8.77449 11.1533C7.62899 12.5126 7.33099 14.322 7.67649 15.8403C8.03399 17.4107 9.07949 18.67 10.5875 18.7975C10.923 18.826 11.26 18.808 11.5865 18.7355C11.5865 18.7355 12.0935 18.5859 12.317 18.4694C12.9925 18.1163 13.448 17.2686 13.1885 16.4165C12.5565 16.1804 11.8945 16.1084 11.4505 15.5193Z" fill="url(#paint3_linear)"/>
<path d="M16.643 8.02439C16.8095 8.02289 16.974 8.01639 17.14 7.98738C17.1825 7.98038 17.214 8.01939 17.195 8.0594C16.7555 8.97361 16.372 9.8463 16.538 10.885C16.6065 11.3146 16.756 11.7817 16.9995 12.1773C17.0335 12.1923 17.0675 12.2063 17.103 12.2193C17.8885 8.85658 24.139 10.923 25.303 7.71332C25.3015 7.71332 25.2995 7.71282 25.298 7.71232H25.2975C25.2955 7.71182 25.294 7.71182 25.2925 7.71182C23.308 7.43276 21.5425 5.02572 21.434 4.69614C21.326 4.36607 21.1415 4.25254 20.846 4.42608C20.6345 4.55061 19.9755 4.81417 19.622 4.9537C19.6215 4.9537 19.62 4.9537 19.6195 4.9542C19.619 4.9547 19.6175 4.9547 19.617 4.9552C18.3665 5.57784 17.2825 6.78161 16.643 8.02439Z" fill="url(#paint4_linear)"/>
<path d="M21.503 7.44434C20.323 7.57887 19.8265 9.85038 19.116 10.332C20.386 9.9249 22.0035 9.85238 23.292 9.42678C23.459 7.91744 22.528 7.32731 21.503 7.44434Z" fill="url(#paint5_linear)"/>
<path d="M21.8435 8.56207C21.2335 8.59808 20.906 9.71434 20.531 10.0014C21.271 9.86787 22.0405 9.75984 22.7475 9.5828C22.7475 9.5823 22.7475 9.5818 22.7475 9.5813C22.832 8.84614 22.3715 8.53057 21.8435 8.56207Z" fill="url(#paint6_linear)"/>
<path d="M33.211 8.24969C32.3925 7.25147 31.019 7.42751 30.6845 7.45101C30.6715 7.45201 30.6535 7.45351 30.6315 7.45602V7.45652C30.5705 7.53503 30.4955 7.75108 30.472 7.86761C30.519 7.92362 30.7215 8.05315 30.872 8.10216C31.045 8.15867 31.1135 8.25169 31.2095 8.41073C31.276 8.52075 31.308 8.64528 31.3545 8.76431C31.375 8.81582 31.3985 8.86233 31.4245 8.90584C32.444 9.24042 33.889 9.39995 33.7325 10.5537C33.8745 9.79154 33.741 8.89634 33.211 8.24969Z" fill="url(#paint7_linear)"/>
<path d="M28.695 29.9167C27.017 27.6872 24.662 27.4211 24.662 27.4211C24.662 27.4211 21.7665 26.8345 19.379 28.2273C19.379 28.2273 20.69 28.8124 21.093 29.4646C21.4965 30.1167 21.637 30.5813 21.7925 31.655C21.948 32.7293 22.2335 33.3899 22.2335 33.3899C24.2005 34.5862 28.3015 38.2205 28.293 38.2135L28.318 38.202C29.5625 37.6319 30.7385 36.9382 31.8305 36.1361C31.3175 33.9246 30.3405 32.1036 28.695 29.9167Z" fill="url(#paint8_linear)"/>
<path d="M22.2335 33.39C16.2895 29.7732 11.2155 29.5321 10.9075 29.5211C10.976 27.9548 10.7045 26.4459 10.7045 26.4459C10.7045 26.4459 15.4845 26.5624 19.379 28.2273C19.379 28.2273 20.69 28.813 21.093 29.4646C21.4965 30.1167 21.637 30.5813 21.7925 31.6551C21.948 32.7293 22.2335 33.39 22.2335 33.39Z" fill="url(#paint9_linear)"/>
<path d="M20 40.0092C22.9585 40.0092 25.7665 39.3666 28.293 38.2138C28.3015 38.2208 24.2005 34.5865 22.2335 33.3902C16.2895 29.7734 11.224 29.5329 10.916 29.5219H10.9155C10.9125 29.5219 10.91 29.5214 10.9075 29.5214C10.903 30.3671 10.448 34.765 9.38949 36.9625L9.38849 36.965C12.4645 38.894 16.1015 40.0092 20 40.0092Z" fill="url(#paint10_linear)"/>
<path d="M28.293 38.2138C28.3015 38.2208 24.2005 34.5865 22.2335 33.3902C16.2895 29.7734 11.2155 29.5324 10.9075 29.5214C10.905 30.0165 10.7475 31.7304 10.4055 33.5068C11.635 33.5473 18.4145 34.0074 24.69 39.4556C25.9405 39.155 27.146 38.7369 28.293 38.2138Z" fill="url(#paint11_linear)"/>
</g>
<defs>
<linearGradient id="paint0_linear" x1="9.00962" y1="24.1963" x2="32.1136" y2="6.79009" gradientUnits="userSpaceOnUse">
<stop stop-color="#39261D"/>
<stop offset="0.6593" stop-color="#E0B585"/>
<stop offset="0.7511" stop-color="#DDB283"/>
<stop offset="0.8252" stop-color="#D3A87B"/>
<stop offset="0.8931" stop-color="#C2986F"/>
<stop offset="0.957" stop-color="#AA815D"/>
<stop offset="0.999" stop-color="#966D4E"/>
</linearGradient>
<linearGradient id="paint1_linear" x1="22.5439" y1="14.2111" x2="9.76298" y2="25.3673" gradientUnits="userSpaceOnUse">
<stop stop-color="#E0B58B" stop-opacity="0"/>
<stop offset="0.2249" stop-color="#A98565" stop-opacity="0.3739"/>
<stop offset="0.4788" stop-color="#71543E" stop-opacity="0.796"/>
<stop offset="0.6016" stop-color="#5B412F"/>
<stop offset="0.6233" stop-color="#573D2D"/>
<stop offset="0.8022" stop-color="#38241B"/>
<stop offset="0.9021" stop-color="#2C1A14"/>
<stop offset="0.9456" stop-color="#20100C"/>
<stop offset="0.9944" stop-color="#170906"/>
</linearGradient>
<radialGradient id="paint2_radial" cx="0" cy="0" r="1" gradientUnits="userSpaceOnUse" gradientTransform="translate(31.696 10.3014) rotate(-11.0135) scale(12.1207 8.77135)">
<stop offset="0.2079" stop-color="#5B3622"/>
<stop offset="0.4512" stop-color="#5D3824" stop-opacity="0.6923"/>
<stop offset="0.5815" stop-color="#65402A" stop-opacity="0.5276"/>
<stop offset="0.6851" stop-color="#734D35" stop-opacity="0.3965"/>
<stop offset="0.7746" stop-color="#865F44" stop-opacity="0.2833"/>
<stop offset="0.855" stop-color="#9F7758" stop-opacity="0.1817"/>
<stop offset="0.9278" stop-color="#BD946F" stop-opacity="0.0896"/>
<stop offset="0.9954" stop-color="#E1B68B" stop-opacity="0.01"/>
<stop offset="0.9987" stop-color="#E3B88D" stop-opacity="0"/>
</radialGradient>
<linearGradient id="paint3_linear" x1="7.93281" y1="13.5451" x2="14.8956" y2="14.6268" gradientUnits="userSpaceOnUse">
<stop offset="0.0962" stop-color="#200D05" stop-opacity="0.8"/>
<stop offset="0.8865" stop-color="#200D05" stop-opacity="0"/>
</linearGradient>
<linearGradient id="paint4_linear" x1="15.7545" y1="8.89618" x2="23.8606" y2="7.40205" gradientUnits="userSpaceOnUse">
<stop stop-color="#5B331F" stop-opacity="0"/>
<stop offset="1" stop-color="#5A321E"/>
</linearGradient>
<linearGradient id="paint5_linear" x1="19.116" y1="8.88093" x2="23.3115" y2="8.88093" gradientUnits="userSpaceOnUse">
<stop offset="0.000702893" stop-color="#5A321E" stop-opacity="0"/>
<stop offset="0.3283" stop-color="#432214" stop-opacity="0.3278"/>
<stop offset="0.7429" stop-color="#2B1209" stop-opacity="0.7427"/>
<stop offset="1" stop-color="#220C05"/>
</linearGradient>
<linearGradient id="paint6_linear" x1="20.531" y1="9.28067" x2="22.7576" y2="9.28067" gradientUnits="userSpaceOnUse">
<stop offset="0.00210996" stop-color="#25130E" stop-opacity="0"/>
<stop offset="0.1165" stop-color="#25130E" stop-opacity="0.1147"/>
<stop offset="0.9993" stop-color="#25130E"/>
</linearGradient>
<linearGradient id="paint7_linear" x1="29.2624" y1="6.97586" x2="35.3658" y2="10.3712" gradientUnits="userSpaceOnUse">
<stop offset="0.1383" stop-color="#502414" stop-opacity="0"/>
<stop offset="0.9986" stop-color="#502414"/>
</linearGradient>
<linearGradient id="paint8_linear" x1="22.8739" y1="34.2399" x2="28.6651" y2="29.8769" gradientUnits="userSpaceOnUse">
<stop offset="0.00421078" stop-color="#FFB503"/>
<stop offset="0.8681" stop-color="#FFD719"/>
</linearGradient>
<linearGradient id="paint9_linear" x1="10.7045" y1="29.9179" x2="22.2335" y2="29.9179" gradientUnits="userSpaceOnUse">
<stop offset="0.00421078" stop-color="#FFB503"/>
<stop offset="0.8681" stop-color="#FFD719"/>
</linearGradient>
<linearGradient id="paint10_linear" x1="9.21607" y1="35.7963" x2="27.5367" y2="33.0916" gradientUnits="userSpaceOnUse">
<stop offset="0.00421065" stop-color="#641724"/>
<stop offset="0.1039" stop-color="#711825"/>
<stop offset="0.2883" stop-color="#941B26"/>
<stop offset="0.4332" stop-color="#B31E28"/>
</linearGradient>
<linearGradient id="paint11_linear" x1="10.7049" y1="35.5362" x2="27.5309" y2="33.0521" gradientUnits="userSpaceOnUse">
<stop stop-color="#5B0D14"/>
<stop offset="0.4608" stop-color="#94171F"/>
<stop offset="0.7048" stop-color="#AD1B24"/>
</linearGradient>
<clipPath id="clip0">
<rect width="145.6" height="40" fill="white"/>
</clipPath>
</defs>
</svg>
